PathFileType  4	(X/Y/Z) D:/Data/Berkelmans/SUB01/trc/slow_skatebelt
DataRate	CameraRate	NumFrames	NumMarkers	Units	OrigDataRate	OrigDataStartFrame	OrigNumFrames
100.0	100.0	11	31	m	100.0	301	800
Frame#	Time	LCAL			RCAL			C7			LSHO			RTIB2			RFEM2			LFEM2			RTIB3			RFEM1			LSIPS			RTIB1			LTIB2			RFEM3			RSHO			RKNEE_med			LKNEE_lat			RKNEE_lat			LMTP5			RMTP5			RSIAS			RSIPS			LSIAS			LKNEE_med			LANK_lat			LANK_med			RANK_lat			RANK_med			LTIB3			LTIB1			LFEM3			LFEM1			
		X1	Y1	Z1	X2	Y2	Z2	X3	Y3	Z3	X4	Y4	Z4	X5	Y5	Z5	X6	Y6	Z6	X7	Y7	Z7	X8	Y8	Z8	X9	Y9	Z9	X10	Y10	Z10	X11	Y11	Z11	X12	Y12	Z12	X13	Y13	Z13	X14	Y14	Z14	X15	Y15	Z15	X16	Y16	Z16	X17	Y17	Z17	X18	Y18	Z18	X19	Y19	Z19	X20	Y20	Z20	X21	Y21	Z21	X22	Y22	Z22	X23	Y23	Z23	X24	Y24	Z24	X25	Y25	Z25	X26	Y26	Z26	X27	Y27	Z27	X28	Y28	Z28	X29	Y29	Z29	X30	Y30	Z30	X31	Y31	Z31	

301	0.0100000	-0.0312069	0.0672087	-0.0350521	-0.3552989	0.0884112	0.1098918	-0.2007879	1.3846938	-0.0248624	-0.1240924	1.4285561	-0.1660191	-0.2162022	0.3406867	0.1867481	-0.1379641	0.5733961	0.1821824	-0.0483035	0.5980833	-0.1481907	-0.2630839	0.3626931	0.1521715	-0.1746025	0.6750783	0.1821511	-0.1853339	1.0339214	-0.0530423	-0.2112814	0.4091854	0.1804262	-0.0192292	0.3340322	-0.1398648	-0.1800228	0.5933774	0.1452311	-0.0958228	1.3986721	0.2030636	-0.0779669	0.4897360	0.0701386	0.0337376	0.4896065	-0.1169475	-0.0887886	0.4801062	0.1647602	0.1224486	0.0443775	-0.1160625	-0.2007131	0.0461882	0.1803785	0.0157114	0.9748102	0.1187712	-0.1803311	1.0260059	0.0615438	0.0073141	0.9789461	-0.1083663	0.0297639	0.5038264	-0.0276637	0.0212743	0.1016748	-0.0934881	0.0487532	0.1105274	-0.0162550	-0.2874522	0.1176198	0.1562910	-0.2705937	0.1273595	0.0766174	-0.0719933	0.3458037	-0.1112132	-0.0376565	0.4008270	-0.1345626	-0.1048592	0.6010783	-0.1106229	-0.1166972	0.6765206	-0.1586515
302	0.0200000	-0.0366453	0.0673030	-0.0350234	-0.3572957	0.0949659	0.1096412	-0.2005300	1.3851967	-0.0266730	-0.1235245	1.4291652	-0.1675677	-0.2125707	0.3436061	0.1862981	-0.1329340	0.5725447	0.1795416	-0.0514143	0.5984538	-0.1503880	-0.2586419	0.3663456	0.1512462	-0.1710599	0.6736981	0.1784506	-0.1845388	1.0343177	-0.0554291	-0.2059219	0.4117727	0.1792539	-0.0242626	0.3340513	-0.1395922	-0.1746763	0.5918652	0.1418609	-0.0959799	1.3990457	0.2015901	-0.0696672	0.4887311	0.0694381	0.0309215	0.4893687	-0.1178267	-0.0822115	0.4799044	0.1646285	0.1171797	0.0442631	-0.1158490	-0.2050912	0.0466101	0.1808975	0.0155445	0.9755439	0.1171076	-0.1802397	1.0261771	0.0591843	0.0081842	0.9795331	-0.1100735	0.0260694	0.5036586	-0.0283517	0.0157577	0.1016808	-0.0933367	0.0432620	0.1104562	-0.0162447	-0.2893217	0.1218461	0.1571385	-0.2717654	0.1308216	0.0776638	-0.0762454	0.3460748	-0.1094954	-0.0426432	0.4010452	-0.1336701	-0.1072354	0.6018236	-0.1128790	-0.1184955	0.6778915	-0.1596683
303	0.0300000	-0.0417633	0.0677354	-0.0347367	-0.3592826	0.1022236	0.1103989	-0.2005528	1.3858246	-0.0283604	-0.1229844	1.4302101	-0.1691789	-0.2081094	0.3465991	0.1862027	-0.1274254	0.5717312	0.1772028	-0.0550854	0.5990496	-0.1523413	-0.2534584	0.3702148	0.1506075	-0.1672756	0.6721759	0.1748720	-0.1839506	1.0348802	-0.0577604	-0.1997008	0.4145275	0.1783533	-0.0311995	0.3369317	-0.1376104	-0.1686711	0.5901074	0.1386537	-0.0963565	1.3994138	0.2000547	-0.0607748	0.4877367	0.0687859	0.0272532	0.4889678	-0.1191503	-0.0746789	0.4797016	0.1644509	0.1115881	0.0441712	-0.1158899	-0.2094750	0.0473362	0.1814524	0.0152178	0.9763444	0.1156923	-0.1803487	1.0263592	0.0568177	0.0089190	0.9802930	-0.1115804	0.0225571	0.5038406	-0.0288817	0.0103150	0.1016045	-0.0933765	0.0376640	0.1105213	-0.0162875	-0.2908381	0.1265309	0.1581198	-0.2733271	0.1344761	0.0784573	-0.0756847	0.3463022	-0.1043684	-0.0479447	0.4011452	-0.1334174	-0.1097655	0.6031358	-0.1129969	-0.1213556	0.6796427	-0.1587682
304	0.0400000	-0.0484899	0.0672785	-0.0360050	-0.3615583	0.1100654	0.1115622	-0.2002470	1.3863129	-0.0301025	-0.1222259	1.4311461	-0.1706873	-0.2027616	0.3498652	0.1863926	-0.1211997	0.5706198	0.1749244	-0.0609459	0.5999246	-0.1547758	-0.2472507	0.3742744	0.1503124	-0.1628330	0.6703248	0.1716228	-0.1834155	1.0357934	-0.0600078	-0.1923958	0.4174579	0.1779507	-0.0370809	0.3371316	-0.1380304	-0.1622613	0.5880744	0.1356680	-0.0969877	1.3997840	0.1984852	-0.0512613	0.4868586	0.0680791	0.0234576	0.4886703	-0.1205153	-0.0662937	0.4795050	0.1643075	0.1062869	0.0440990	-0.1157846	-0.2135029	0.0484157	0.1819772	0.0146085	0.9772039	0.1144913	-0.1804153	1.0265887	0.0544319	0.0097547	0.9809486	-0.1127278	0.0184243	0.5039604	-0.0298196	0.0047802	0.1015442	-0.0934127	0.0324571	0.1105540	-0.0163567	-0.2918580	0.1310265	0.1593934	-0.2731490	0.1391276	0.0796805	-0.0807904	0.3468231	-0.1042336	-0.0529006	0.4012438	-0.1341987	-0.1155852	0.6044147	-0.1139834	-0.1238025	0.6816397	-0.1572763
305	0.0500000	-0.0539312	0.0673532	-0.0360323	-0.3622733	0.1192235	0.1120912	-0.1997200	1.3867383	-0.0318119	-0.1211921	1.4320414	-0.1721563	-0.1964695	0.3528649	0.1866109	-0.1146384	0.5692467	0.1729548	-0.0646770	0.6007635	-0.1566466	-0.2402878	0.3782348	0.1502695	-0.1582467	0.6680980	0.1687750	-0.1830583	1.0364847	-0.0621309	-0.1843498	0.4200825	0.1776106	-0.0420182	0.3371373	-0.1394406	-0.1553439	0.5857364	0.1329897	-0.0977252	1.4000613	0.1968779	-0.0418573	0.4861973	0.0676918	0.0196897	0.4884478	-0.1217132	-0.0573238	0.4792360	0.1643042	0.1006104	0.0441498	-0.1158681	-0.2170709	0.0503517	0.1824871	0.0136558	0.9781131	0.1135667	-0.1808932	1.0267953	0.0522708	0.0103076	0.9817249	-0.1136802	0.0142264	0.5041155	-0.0309558	-0.0007708	0.1013900	-0.0936599	0.0269253	0.1104551	-0.0166181	-0.2913413	0.1372651	0.1604516	-0.2727094	0.1442348	0.0805877	-0.0857845	0.3473719	-0.1056457	-0.0574661	0.4015015	-0.1356556	-0.1187295	0.6054300	-0.1148468	-0.1260310	0.6838492	-0.1567028
306	0.0600000	-0.0595302	0.0672323	-0.0362771	-0.3618387	0.1287443	0.1123523	-0.1991577	1.3869773	-0.0334044	-0.1201924	1.4330616	-0.1736755	-0.1894604	0.3558177	0.1869023	-0.1072793	0.5678102	0.1713701	-0.0679466	0.6017791	-0.1584044	-0.2325949	0.3822259	0.1503612	-0.1532016	0.6655660	0.1663302	-0.1827805	1.0373045	-0.0641990	-0.1757000	0.4227777	0.1775921	-0.0464979	0.3373002	-0.1412675	-0.1477596	0.5831746	0.1308329	-0.0985565	1.4002951	0.1954572	-0.0317387	0.4858326	0.0670298	0.0157879	0.4881660	-0.1229231	-0.0480951	0.4792316	0.1641700	0.0954434	0.0440865	-0.1158758	-0.2205648	0.0526927	0.1829377	0.0123375	0.9788294	0.1128948	-0.1815256	1.0270811	0.0500895	0.0111385	0.9824588	-0.1143897	0.0100810	0.5040073	-0.0321609	-0.0061992	0.1012574	-0.0939993	0.0213295	0.1104580	-0.0169378	-0.2905515	0.1437463	0.1612586	-0.2712145	0.1496303	0.0814468	-0.0908117	0.3476166	-0.1084334	-0.0615389	0.4016845	-0.1376618	-0.1218215	0.6069827	-0.1167647	-0.1277406	0.6859241	-0.1577114
307	0.0700000	-0.0650718	0.0672887	-0.0364832	-0.3606577	0.1388504	0.1126188	-0.1988885	1.3871366	-0.0347854	-0.1189182	1.4336911	-0.1750882	-0.1817859	0.3589453	0.1869539	-0.0995006	0.5662530	0.1699813	-0.0705113	0.6025933	-0.1599152	-0.2243880	0.3863226	0.1505496	-0.1480451	0.6628270	0.1644047	-0.1826230	1.0380164	-0.0661978	-0.1663356	0.4254494	0.1776378	-0.0496222	0.3369072	-0.1432720	-0.1399338	0.5805631	0.1290924	-0.0996331	1.4005169	0.1941415	-0.0214207	0.4856853	0.0668200	0.0115449	0.4879352	-0.1243009	-0.0385090	0.4792773	0.1640798	0.0895571	0.0440245	-0.1159480	-0.2234047	0.0555222	0.1832413	0.0109653	0.9794248	0.1122963	-0.1822499	1.0274675	0.0480571	0.0115446	0.9830974	-0.1148873	0.0062989	0.5037698	-0.0331734	-0.0117311	0.1010308	-0.0943896	0.0155836	0.1104329	-0.0172826	-0.2887698	0.1504004	0.1620648	-0.2691130	0.1554316	0.0822488	-0.0950729	0.3474829	-0.1118230	-0.0648268	0.4016079	-0.1403745	-0.1249178	0.6083470	-0.1191861	-0.1293537	0.6876635	-0.1602083
308	0.0800000	-0.0705448	0.0671805	-0.0366749	-0.3584771	0.1495684	0.1126586	-0.1983274	1.3873058	-0.0361428	-0.1174395	1.4345436	-0.1763831	-0.1736645	0.3620497	0.1871884	-0.0911053	0.5649801	0.1691403	-0.0731033	0.6032164	-0.1614914	-0.2156071	0.3905405	0.1507104	-0.1426154	0.6600703	0.1632329	-0.1824896	1.0386868	-0.0681044	-0.1567312	0.4281105	0.1776996	-0.0489403	0.3338898	-0.1451674	-0.1317273	0.5779172	0.1278199	-0.1008939	1.4005395	0.1928589	-0.0107340	0.4861153	0.0665165	0.0068609	0.4877728	-0.1254818	-0.0287965	0.4797816	0.1639950	0.0843424	0.0439039	-0.1159267	-0.2260359	0.0590409	0.1834478	0.0094366	0.9797118	0.1118885	-0.1830858	1.0278035	0.0459762	0.0118840	0.9837380	-0.1154302	0.0018975	0.5034263	-0.0343649	-0.0173382	0.1009091	-0.0946415	0.0099625	0.1105217	-0.0175196	-0.2860574	0.1573879	0.1628301	-0.2660518	0.1613576	0.0827536	-0.0994420	0.3472238	-0.1148391	-0.0682765	0.4011733	-0.1432527	-0.1280316	0.6092881	-0.1217334	-0.1309819	0.6885942	-0.1635824
309	0.0900000	-0.0761693	0.0672168	-0.0367631	-0.3550282	0.1609059	0.1123361	-0.1978165	1.3871784	-0.0372022	-0.1160892	1.4352326	-0.1774473	-0.1652777	0.3654316	0.1872469	-0.0826204	0.5641299	0.1686241	-0.0736959	0.6029754	-0.1624679	-0.2065463	0.3949263	0.1508287	-0.1370421	0.6574476	0.1624723	-0.1824191	1.0395409	-0.0700624	-0.1466238	0.4308999	0.1776958	-0.0537457	0.3327582	-0.1468894	-0.1233106	0.5759575	0.1270102	-0.1022957	1.4005500	0.1916835	-0.0001524	0.4869342	0.0663044	0.0025088	0.4874775	-0.1266597	-0.0190365	0.4804577	0.1638778	0.0786768	0.0438338	-0.1160446	-0.2278033	0.0628945	0.1834729	0.0079637	0.9798724	0.1115359	-0.1841565	1.0281566	0.0441553	0.0119799	0.9840931	-0.1158602	-0.0027626	0.5028777	-0.0354715	-0.0229504	0.1008083	-0.0947929	0.0045291	0.1106661	-0.0175415	-0.2825286	0.1644096	0.1636512	-0.2624257	0.1673562	0.0830387	-0.1083956	0.3470762	-0.1208362	-0.0723440	0.4006412	-0.1451443	-0.1282028	0.6100350	-0.1232300	-0.1327761	0.6890670	-0.1668362
310	0.1000000	-0.0816662	0.0670691	-0.0366630	-0.3502480	0.1720623	0.1120581	-0.1974029	1.3868668	-0.0379656	-0.1148828	1.4356381	-0.1780619	-0.1568050	0.3688773	0.1872857	-0.0742637	0.5636540	0.1682974	-0.0762673	0.6030437	-0.1639589	-0.1972617	0.3992770	0.1505982	-0.1314363	0.6552869	0.1624198	-0.1829006	1.0401593	-0.0715838	-0.1365206	0.4339449	0.1775854	-0.0587704	0.3328207	-0.1477373	-0.1151323	0.5743108	0.1266602	-0.1039272	1.4006236	0.1906621	0.0099049	0.4881521	0.0659599	-0.0021774	0.4872271	-0.1273524	-0.0094984	0.4815570	0.1638247	0.0734384	0.0439150	-0.1159787	-0.2295664	0.0671972	0.1834725	0.0063731	0.9801686	0.1113963	-0.1852749	1.0286151	0.0423755	0.0118276	0.9843468	-0.1162529	-0.0074855	0.5024898	-0.0364238	-0.0283249	0.1007637	-0.0949441	-0.0009725	0.1108057	-0.0178458	-0.2783726	0.1715895	0.1635384	-0.2577622	0.1732913	0.0830982	-0.1132136	0.3470792	-0.1217933	-0.0769478	0.4006317	-0.1461824	-0.1310619	0.6106293	-0.1252417	-0.1352728	0.6891779	-0.1696931
311	0.1100000	-0.0871404	0.0671239	-0.0366932	-0.3464956	0.1834833	0.1091618	-0.2000070	1.3871593	-0.0399275	-0.1164008	1.4362208	-0.1799415	-0.1492046	0.3726286	0.1865180	-0.0671018	0.5640282	0.1670855	-0.0808085	0.6036229	-0.1656822	-0.1890271	0.4041649	0.1489728	-0.1269456	0.6537135	0.1619638	-0.1858580	1.0417181	-0.0746581	-0.1275239	0.4373863	0.1766069	-0.0651293	0.3329264	-0.1484972	-0.1082409	0.5733952	0.1254308	-0.1074892	1.4009866	0.1886940	0.0199149	0.4900813	0.0657702	-0.0071380	0.4869221	-0.1281774	-0.0004105	0.4830699	0.1637348	0.0678205	0.0437570	-0.1160064	-0.2300717	0.0718498	0.1833964	0.0047649	0.9804850	0.1115572	-0.1891759	1.0299471	0.0391083	0.0115375	0.9845070	-0.1164824	-0.0127876	0.5022151	-0.0375361	-0.0337686	0.1006652	-0.0949712	-0.0051492	0.1115414	-0.0175864	-0.2742941	0.1784181	0.1619192	-0.2525185	0.1788364	0.0830278	-0.1188626	0.3473261	-0.1216398	-0.0841270	0.4011955	-0.1467915	-0.1364883	0.6110327	-0.1274165	-0.1397173	0.6896454	-0.1722328
